<svg width="14" height="17" viewBox="0 0 14 17" fill="none" xmlns="http://www.w3.org/2000/svg">
<path d="M13.625 5.72998H0.375C0.15625 5.72998 0 5.57373 0 5.35498V4.22998C0 3.41748 0.65625 2.72998 1.5 2.72998H3V1.10498C3 0.91748 3.15625 0.72998 3.375 0.72998H4.625C4.8125 0.72998 5 0.91748 5 1.10498V2.72998H9V1.10498C9 0.91748 9.15625 0.72998 9.375 0.72998H10.625C10.8125 0.72998 11 0.91748 11 1.10498V2.72998H12.5C13.3125 2.72998 14 3.41748 14 4.22998V5.35498C14 5.57373 13.8125 5.72998 13.625 5.72998ZM0.375 6.72998H13.625C13.8125 6.72998 14 6.91748 14 7.10498V15.23C14 16.0737 13.3125 16.73 12.5 16.73H1.5C0.65625 16.73 0 16.0737 0 15.23V7.10498C0 6.91748 0.15625 6.72998 0.375 6.72998ZM10.7812 9.72998L9.90625 8.85498C9.75 8.69873 9.5 8.69873 9.375 8.85498L6.0625 12.1362L4.625 10.6987C4.46875 10.5425 4.21875 10.5425 4.09375 10.6987L3.1875 11.5737C3.0625 11.73 3.0625 11.9487 3.1875 12.105L5.78125 14.6987C5.90625 14.855 6.15625 14.855 6.3125 14.6987L10.7812 10.2612C10.9062 10.1362 10.9062 9.88623 10.7812 9.72998Z" fill="#757575"/>
</svg>
