<svg width="10" height="10" viewBox="0 0 10 10" fill="none" xmlns="http://www.w3.org/2000/svg">
<path d="M6.80469 5.04999L9.53906 7.81171C9.89453 8.13983 9.89453 8.68671 9.53906 9.01483L8.9375 9.61639C8.60938 9.97186 8.0625 9.97186 7.73438 9.61639L5 6.88202L2.23828 9.61639C1.91016 9.97186 1.36328 9.97186 1.03516 9.61639L0.433594 9.01483C0.078125 8.68671 0.078125 8.13983 0.433594 7.81171L3.16797 5.04999L0.433594 2.31561C0.078125 1.98749 0.078125 1.44061 0.433594 1.11249L1.03516 0.510925C1.36328 0.155457 1.91016 0.155457 2.23828 0.510925L5 3.2453L7.73438 0.510925C8.0625 0.155457 8.60938 0.155457 8.9375 0.510925L9.53906 1.11249C9.89453 1.44061 9.89453 1.98749 9.53906 2.31561L6.80469 5.04999Z" fill="#E63C3C"/>
</svg>
