<svg width="14" height="17" viewBox="0 0 14 17" fill="none" xmlns="http://www.w3.org/2000/svg">
<path d="M7 8.08008C4.78125 8.08008 3 6.29883 3 4.08008C3 1.89258 4.78125 0.0800781 7 0.0800781C9.1875 0.0800781 11 1.89258 11 4.08008C11 6.29883 9.1875 8.08008 7 8.08008ZM3.25 13.3301C3.25 12.9238 3.5625 12.5801 4 12.5801C4.40625 12.5801 4.75 12.9238 4.75 13.3301C4.75 13.7676 4.40625 14.0801 4 14.0801C3.5625 14.0801 3.25 13.7676 3.25 13.3301ZM10 9.11133C12.2188 9.23633 14 11.0488 14 13.2988V14.7051C14 15.4551 13.3438 16.0801 12.5938 16.0801H1.375C0.625 16.0801 0 15.4551 0 14.7051V13.2988C0 11.2051 1.5 9.48633 3.5 9.17383V11.6738C2.78125 11.8926 2.25 12.5488 2.25 13.3613C2.25 14.2988 3.03125 15.1113 4 15.1113C4.96875 15.1113 5.75 14.2988 5.75 13.3613C5.75 12.5488 5.21875 11.8926 4.5 11.6738V9.14258C4.71875 9.17383 4.96875 9.20508 5.1875 9.29883C5.75 9.48633 6.375 9.61133 7 9.61133C7.625 9.61133 8.21875 9.48633 8.78125 9.29883C8.84375 9.26758 8.90625 9.26758 9 9.23633V10.6426C7.84375 10.8926 7 11.8926 7 13.0801V14.4551C7 14.7051 7.1875 14.9238 7.40625 14.9551L8.40625 15.0801C8.53125 15.1113 8.65625 15.0176 8.6875 14.8926L8.78125 14.3926C8.8125 14.2676 8.71875 14.1426 8.59375 14.1113L8 13.9863V13.1426C8 11.0488 11 11.1426 11 13.0801V13.9863L10.375 14.1113C10.25 14.1426 10.1562 14.2676 10.1875 14.3926L10.2812 14.8926C10.3125 15.0176 10.4375 15.1113 10.5625 15.0801L11.5938 14.8926C11.8125 14.8301 12 14.6426 12 14.3926V13.0801C12 11.8926 11.125 10.8613 10 10.6426V9.11133Z" fill="#757575"/>
</svg>
