<svg width="14" height="14" viewBox="0 0 14 14" fill="none" xmlns="http://www.w3.org/2000/svg">
<path d="M8.88997 12.9909H8.81414C6.22413 12.9909 4.9758 11.9701 4.75997 9.68344C4.73663 9.44428 4.91163 9.22844 5.15663 9.20511C5.3958 9.18178 5.61163 9.36261 5.63497 9.60178C5.80413 11.4334 6.66747 12.1159 8.81997 12.1159H8.8958C11.27 12.1159 12.11 11.2759 12.11 8.90178V5.09844C12.11 2.72428 11.27 1.88428 8.8958 1.88428H8.81997C6.6558 1.88428 5.79247 2.57844 5.63497 4.44511C5.6058 4.68428 5.40747 4.86511 5.15663 4.84178C4.91163 4.82428 4.73663 4.60844 4.75413 4.36928C4.95247 2.04761 6.20663 1.00928 8.81414 1.00928H8.88997C11.7541 1.00928 12.9791 2.23428 12.9791 5.09844V8.90178C12.9791 11.7659 11.7541 12.9909 8.88997 12.9909Z" fill="white"/>
<path d="M8.67984 7.4375H1.1665C0.927337 7.4375 0.729004 7.23917 0.729004 7C0.729004 6.76083 0.927337 6.5625 1.1665 6.5625H8.67984C8.919 6.5625 9.11734 6.76083 9.11734 7C9.11734 7.23917 8.92484 7.4375 8.67984 7.4375Z" fill="white"/>
<path d="M7.3794 9.39174C7.26857 9.39174 7.15773 9.3509 7.07023 9.2634C6.90107 9.09424 6.90107 8.81424 7.07023 8.64507L8.71523 7.00007L7.07023 5.35507C6.90107 5.18591 6.90107 4.9059 7.07023 4.73674C7.2394 4.56757 7.5194 4.56757 7.68857 4.73674L9.64274 6.69091C9.8119 6.86007 9.8119 7.14007 9.64274 7.30924L7.68857 9.2634C7.60107 9.3509 7.49023 9.39174 7.3794 9.39174Z" fill="white"/>
</svg>
