<svg width="13" height="12" viewBox="0 0 13 12" fill="none" xmlns="http://www.w3.org/2000/svg">
<path d="M9.68497 5.33749C9.57663 5.33749 9.48288 5.2979 9.40372 5.21874C9.32455 5.13957 9.28497 5.04582 9.28497 4.93749V3.86249C9.28497 3.02915 9.10997 2.35415 8.75997 1.83749C8.40997 1.32082 7.65163 1.06249 6.48497 1.06249C5.3183 1.06249 4.55997 1.32082 4.20997 1.83749C3.85997 2.35415 3.68497 3.02915 3.68497 3.86249V4.93749C3.68497 5.04582 3.64538 5.13957 3.56622 5.21874C3.48705 5.2979 3.3933 5.33749 3.28497 5.33749C3.17663 5.33749 3.08288 5.2979 3.00372 5.21874C2.92455 5.13957 2.88497 5.04582 2.88497 4.93749V3.86249C2.88497 3.47915 2.92247 3.07499 2.99747 2.64999C3.06413 2.22499 3.22247 1.83749 3.47247 1.48749C3.72247 1.13749 4.08497 0.845821 4.55997 0.612488C5.03497 0.379154 5.67663 0.262487 6.48497 0.262487C7.2933 0.262487 7.93497 0.379154 8.40997 0.612488C8.88497 0.845821 9.24747 1.13749 9.49747 1.48749C9.74747 1.83749 9.9058 2.22499 9.97247 2.64999C10.0475 3.07499 10.085 3.47915 10.085 3.86249V4.93749C10.085 5.04582 10.0454 5.13957 9.96622 5.21874C9.88705 5.2979 9.7933 5.33749 9.68497 5.33749ZM9.14747 11.7375H3.82247C2.64747 11.7375 1.84122 11.5187 1.40372 11.0812C0.966217 10.6437 0.747467 9.83749 0.747467 8.66249V7.59999C0.747467 6.42499 0.966217 5.62082 1.40372 5.18749C1.84122 4.75415 2.64747 4.53749 3.82247 4.53749H9.14747C10.3225 4.53749 11.1287 4.75415 11.5662 5.18749C12.0037 5.62082 12.2225 6.42499 12.2225 7.59999V8.66249C12.2225 9.83749 12.0037 10.6437 11.5662 11.0812C11.1287 11.5187 10.3225 11.7375 9.14747 11.7375ZM3.82247 5.33749C2.86413 5.33749 2.24538 5.47707 1.96622 5.75624C1.68705 6.0354 1.54747 6.64999 1.54747 7.59999V8.66249C1.54747 9.62082 1.68705 10.2396 1.96622 10.5187C2.24538 10.7979 2.86413 10.9375 3.82247 10.9375H9.14747C10.1058 10.9375 10.7246 10.7979 11.0037 10.5187C11.2829 10.2396 11.4225 9.62082 11.4225 8.66249V7.59999C11.4225 6.64999 11.2829 6.0354 11.0037 5.75624C10.7246 5.47707 10.1058 5.33749 9.14747 5.33749H3.82247ZM4.34747 8.66249C4.31413 8.66249 4.2808 8.6604 4.24747 8.65624C4.21413 8.65207 4.1808 8.64165 4.14747 8.62499C4.11413 8.60832 4.08288 8.59165 4.05372 8.57499C4.02455 8.55832 3.99747 8.53749 3.97247 8.51249C3.92247 8.46249 3.88497 8.40415 3.85997 8.33749C3.83497 8.27082 3.82247 8.20415 3.82247 8.13749C3.82247 8.10415 3.82455 8.06874 3.82872 8.03124C3.83288 7.99374 3.8433 7.95832 3.85997 7.92499C3.87663 7.89165 3.8933 7.86249 3.90997 7.83749C3.92663 7.81249 3.94747 7.78332 3.97247 7.74999C3.99747 7.72499 4.02455 7.70415 4.05372 7.68749C4.08288 7.67082 4.11413 7.65415 4.14747 7.63749C4.24747 7.59582 4.35163 7.5854 4.45997 7.60624C4.5683 7.62707 4.65997 7.67499 4.73497 7.74999C4.75997 7.78332 4.7808 7.81457 4.79747 7.84374C4.81413 7.8729 4.8308 7.89999 4.84747 7.92499C4.8558 7.95832 4.86413 7.99374 4.87247 8.03124C4.8808 8.06874 4.88497 8.10415 4.88497 8.13749C4.88497 8.20415 4.87038 8.27082 4.84122 8.33749C4.81205 8.40415 4.77663 8.46249 4.73497 8.51249C4.68497 8.56249 4.62663 8.59999 4.55997 8.62499C4.4933 8.64999 4.42247 8.66249 4.34747 8.66249ZM6.48497 8.66249C6.4183 8.66249 6.35163 8.64999 6.28497 8.62499C6.2183 8.59999 6.15997 8.56249 6.10997 8.51249C6.05997 8.46249 6.02038 8.40415 5.99122 8.33749C5.96205 8.27082 5.94747 8.20415 5.94747 8.13749C5.94747 8.10415 5.95163 8.06874 5.95997 8.03124C5.9683 7.99374 5.9808 7.95832 5.99747 7.92499C6.0058 7.89999 6.02038 7.8729 6.04122 7.84374C6.06205 7.81457 6.08497 7.78332 6.10997 7.74999C6.1683 7.69165 6.24122 7.64999 6.32872 7.62499C6.41622 7.59999 6.50163 7.59582 6.58497 7.61249C6.60163 7.61249 6.6183 7.61457 6.63497 7.61874C6.65163 7.6229 6.6683 7.62915 6.68497 7.63749C6.70163 7.64582 6.7183 7.65415 6.73497 7.66249C6.75163 7.67082 6.7683 7.67915 6.78497 7.68749C6.7933 7.69582 6.8058 7.70624 6.82247 7.71874C6.83913 7.73124 6.85163 7.74165 6.85997 7.74999C6.88497 7.78332 6.90788 7.81457 6.92872 7.84374C6.94955 7.8729 6.96413 7.89999 6.97247 7.92499C6.98913 7.95832 7.00163 7.99374 7.00997 8.03124C7.0183 8.06874 7.02247 8.10415 7.02247 8.13749C7.02247 8.20415 7.00788 8.27082 6.97872 8.33749C6.94955 8.40415 6.90997 8.46249 6.85997 8.51249C6.85163 8.52082 6.83913 8.53124 6.82247 8.54374C6.8058 8.55624 6.7933 8.56665 6.78497 8.57499C6.7683 8.58332 6.75163 8.59165 6.73497 8.59999C6.7183 8.60832 6.70163 8.61665 6.68497 8.62499C6.6683 8.63332 6.65163 8.63957 6.63497 8.64374C6.6183 8.6479 6.60163 8.64999 6.58497 8.64999C6.5683 8.65832 6.55163 8.66249 6.53497 8.66249C6.5183 8.66249 6.50163 8.66249 6.48497 8.66249ZM8.62247 8.66249C8.54747 8.66249 8.47663 8.64999 8.40997 8.62499C8.3433 8.59999 8.28497 8.56249 8.23497 8.51249C8.20997 8.48749 8.18913 8.4604 8.17247 8.43124C8.1558 8.40207 8.13913 8.37082 8.12247 8.33749C8.11413 8.30415 8.1058 8.27082 8.09747 8.23749C8.08913 8.20415 8.08497 8.17082 8.08497 8.13749C8.08497 8.06249 8.09955 7.99165 8.12872 7.92499C8.15788 7.85832 8.1933 7.79999 8.23497 7.74999C8.25163 7.74165 8.26622 7.73332 8.27872 7.72499C8.29122 7.71665 8.3058 7.70415 8.32247 7.68749C8.33913 7.67915 8.3558 7.67082 8.37247 7.66249C8.38913 7.65415 8.40163 7.64582 8.40997 7.63749C8.42663 7.62915 8.4433 7.6229 8.45997 7.61874C8.47663 7.61457 8.4933 7.61249 8.50997 7.61249C8.60163 7.59582 8.68913 7.59999 8.77247 7.62499C8.8558 7.64999 8.9308 7.69165 8.99747 7.74999C9.04747 7.79999 9.08497 7.85832 9.10997 7.92499C9.13497 7.99165 9.14747 8.06249 9.14747 8.13749C9.14747 8.17082 9.14538 8.20415 9.14122 8.23749C9.13705 8.27082 9.12663 8.30415 9.10997 8.33749C9.0933 8.37082 9.07663 8.40207 9.05997 8.43124C9.0433 8.4604 9.02247 8.48749 8.99747 8.51249C8.94747 8.56249 8.88913 8.59999 8.82247 8.62499C8.7558 8.64999 8.68913 8.66249 8.62247 8.66249Z" fill="white"/>
</svg>
