<svg width="20" height="13" viewBox="0 0 20 13" fill="none" xmlns="http://www.w3.org/2000/svg">
<path d="M5.5 6.44019C4.09375 6.44019 3 5.34644 3 3.94019C3 2.56519 4.09375 1.44019 5.5 1.44019C6.875 1.44019 8 2.56519 8 3.94019C8 5.34644 6.875 6.44019 5.5 6.44019ZM16.5 2.44019C18.4062 2.44019 20 4.03394 20 5.94019V11.9402C20 12.2214 19.75 12.4402 19.5 12.4402H18.5C18.2188 12.4402 18 12.2214 18 11.9402V10.4402H2V11.9402C2 12.2214 1.75 12.4402 1.5 12.4402H0.5C0.21875 12.4402 0 12.2214 0 11.9402V0.940186C0 0.690186 0.21875 0.440186 0.5 0.440186H1.5C1.75 0.440186 2 0.690186 2 0.940186V7.44019H9V2.94019C9 2.69019 9.21875 2.44019 9.5 2.44019H16.5Z" fill="#757575"/>
</svg>
