<svg width="20" height="16" viewBox="0 0 20 16" fill="none" xmlns="http://www.w3.org/2000/svg">
<path d="M7.70683 9.41341C6.40016 9.41341 5.3335 8.34675 5.3335 7.04008C5.3335 5.73341 6.40016 4.66675 7.70683 4.66675C9.01349 4.66675 10.0802 5.73341 10.0802 7.04008C10.0802 8.34675 9.01349 9.41341 7.70683 9.41341ZM7.70683 5.67342C6.95349 5.67342 6.3335 6.28675 6.3335 7.04675C6.3335 7.80675 6.94683 8.42008 7.70683 8.42008C8.46683 8.42008 9.08016 7.80675 9.08016 7.04675C9.08016 6.28675 8.46683 5.67342 7.70683 5.67342Z" fill="white"/>
<path d="M11.1002 13.9668C10.8268 13.9668 10.6002 13.7401 10.6002 13.4668C10.6002 12.1868 9.27351 11.1467 7.64017 11.1467C6.00684 11.1467 4.68018 12.1868 4.68018 13.4668C4.68018 13.7401 4.45351 13.9668 4.18018 13.9668C3.90684 13.9668 3.68018 13.7401 3.68018 13.4668C3.68018 11.6401 5.45351 10.1467 7.64017 10.1467C9.82684 10.1467 11.6002 11.6334 11.6002 13.4668C11.6002 13.7401 11.3735 13.9668 11.1002 13.9668Z" fill="white"/>
<path d="M7.66683 15.1667C3.90016 15.1667 0.833496 12.1 0.833496 8.33333C0.833496 4.56667 3.90016 1.5 7.66683 1.5C8.5935 1.5 9.48683 1.67999 10.3268 2.03333C10.5668 2.13333 10.6868 2.39998 10.6068 2.64665C10.5335 2.86665 10.5002 3.1 10.5002 3.33333C10.5002 3.72667 10.6068 4.11332 10.8135 4.44666C10.9202 4.63332 11.0602 4.79998 11.2202 4.93998C11.8002 5.46665 12.6602 5.63335 13.3335 5.39335C13.5802 5.30002 13.8602 5.42667 13.9602 5.67334C14.3202 6.52001 14.5002 7.42001 14.5002 8.34001C14.5002 12.1 11.4335 15.1667 7.66683 15.1667ZM7.66683 2.5C4.4535 2.5 1.8335 5.11333 1.8335 8.33333C1.8335 11.5533 4.4535 14.1667 7.66683 14.1667C10.8802 14.1667 13.5002 11.5533 13.5002 8.33333C13.5002 7.69333 13.3935 7.06 13.1935 6.45333C12.2735 6.61333 11.2668 6.32668 10.5602 5.68001C10.3268 5.48001 10.1202 5.23334 9.96016 4.96C9.66683 4.48 9.50683 3.91333 9.50683 3.33333C9.50683 3.15333 9.52016 2.98001 9.5535 2.80668C8.94683 2.60001 8.3135 2.5 7.66683 2.5Z" fill="white"/>
<path d="M12.6667 6.50008C11.88 6.50008 11.1333 6.20676 10.5533 5.68009C10.32 5.48009 10.1133 5.23342 9.95333 4.96008C9.66 4.48008 9.5 3.91341 9.5 3.33341C9.5 2.99341 9.55333 2.66009 9.66 2.34009C9.80667 1.88675 10.06 1.46675 10.4 1.12675C11 0.513416 11.8067 0.166748 12.6733 0.166748C13.58 0.166748 14.44 0.553426 15.0267 1.22009C15.5467 1.80009 15.84 2.54675 15.84 3.33341C15.84 3.58675 15.8067 3.84008 15.74 4.08008C15.6733 4.38008 15.5467 4.69342 15.3733 4.96676C14.9867 5.62009 14.3733 6.10675 13.6533 6.33342C13.3533 6.44675 13.02 6.50008 12.6667 6.50008ZM12.6667 1.16675C12.0733 1.16675 11.52 1.40007 11.1133 1.82007C10.88 2.06007 10.7133 2.3334 10.6133 2.64673C10.54 2.86673 10.5067 3.10008 10.5067 3.33341C10.5067 3.72675 10.6133 4.1134 10.82 4.44674C10.9267 4.6334 11.0667 4.80006 11.2267 4.94006C11.8067 5.46673 12.6667 5.63343 13.34 5.39343C13.8467 5.23343 14.26 4.90008 14.5267 4.45341C14.6467 4.26008 14.7267 4.05343 14.7733 3.84676C14.82 3.67343 14.84 3.50675 14.84 3.33341C14.84 2.80008 14.64 2.28676 14.28 1.88676C13.8733 1.42676 13.2867 1.16675 12.6667 1.16675Z" fill="white"/>
<path d="M13.6598 3.82007H11.6665C11.3932 3.82007 11.1665 3.5934 11.1665 3.32007C11.1665 3.04674 11.3932 2.82007 11.6665 2.82007H13.6598C13.9332 2.82007 14.1598 3.04674 14.1598 3.32007C14.1598 3.5934 13.9398 3.82007 13.6598 3.82007Z" fill="white"/>
<path d="M12.6665 4.84001C12.3932 4.84001 12.1665 4.61334 12.1665 4.34001V2.34668C12.1665 2.07335 12.3932 1.84668 12.6665 1.84668C12.9398 1.84668 13.1665 2.07335 13.1665 2.34668V4.34001C13.1665 4.62001 12.9398 4.84001 12.6665 4.84001Z" fill="white"/>
</svg>
