<svg width="12" height="12" viewBox="0 0 12 12" fill="none" xmlns="http://www.w3.org/2000/svg">
<path d="M5.49502 6.39999C5.07002 6.39999 4.67419 6.32082 4.30752 6.16249C3.93252 5.99582 3.60544 5.77499 3.32627 5.49999C3.0471 5.22499 2.82835 4.89999 2.67002 4.52499C2.51169 4.14999 2.43252 3.75415 2.43252 3.33749C2.43252 2.91249 2.51169 2.51249 2.67002 2.13749C2.82835 1.77082 3.0471 1.4479 3.32627 1.16874C3.60544 0.889571 3.93252 0.670821 4.30752 0.512487C4.67419 0.345821 5.07002 0.262487 5.49502 0.262487C5.92002 0.262487 6.31585 0.345821 6.68252 0.512487C7.05752 0.670821 7.3846 0.889571 7.66377 1.16874C7.94294 1.4479 8.16169 1.77082 8.32002 2.13749C8.47835 2.51249 8.55752 2.91249 8.55752 3.33749C8.55752 3.75415 8.47835 4.14999 8.32002 4.52499C8.16169 4.89999 7.94294 5.22499 7.66377 5.49999C7.3846 5.77499 7.05752 5.99582 6.68252 6.16249C6.31585 6.32082 5.92002 6.39999 5.49502 6.39999ZM5.49502 1.06249C4.87002 1.06249 4.33669 1.2854 3.89502 1.73124C3.45335 2.17707 3.23252 2.71249 3.23252 3.33749C3.23252 3.96249 3.45335 4.49582 3.89502 4.93749C4.33669 5.37915 4.87002 5.59999 5.49502 5.59999C6.12002 5.59999 6.65335 5.37915 7.09502 4.93749C7.53669 4.49582 7.75752 3.96249 7.75752 3.33749C7.75752 2.71249 7.53669 2.17707 7.09502 1.73124C6.65335 1.2854 6.12002 1.06249 5.49502 1.06249ZM0.92002 11.7375C0.803353 11.7375 0.70752 11.6979 0.63252 11.6187C0.55752 11.5396 0.52002 11.4458 0.52002 11.3375C0.52002 10.7625 0.649186 10.225 0.90752 9.72499C1.16585 9.22499 1.52002 8.78749 1.97002 8.41249C2.42002 8.03749 2.94919 7.74165 3.55752 7.52499C4.16585 7.30832 4.81169 7.19999 5.49502 7.19999C5.76169 7.19999 6.02835 7.21665 6.29502 7.24999C6.56169 7.28332 6.82002 7.33749 7.07002 7.41249C7.17835 7.44582 7.2596 7.5104 7.31377 7.60624C7.36794 7.70207 7.37835 7.79999 7.34502 7.89999C7.32002 8.00832 7.2596 8.08957 7.16377 8.14374C7.06794 8.1979 6.96585 8.21249 6.85752 8.18749C6.64085 8.12082 6.41794 8.0729 6.18877 8.04374C5.9596 8.01457 5.72835 7.99999 5.49502 7.99999C4.92002 7.99999 4.37835 8.08749 3.87002 8.26249C3.36169 8.43749 2.91794 8.67499 2.53877 8.97499C2.1596 9.27499 1.86169 9.62915 1.64502 10.0375C1.42835 10.4375 1.32002 10.8708 1.32002 11.3375C1.32002 11.4458 1.28044 11.5396 1.20127 11.6187C1.1221 11.6979 1.02835 11.7375 0.92002 11.7375ZM8.69502 11.7375C8.25335 11.7375 7.83877 11.6271 7.45127 11.4062C7.06377 11.1854 6.75752 10.8833 6.53252 10.5C6.40752 10.3083 6.31377 10.1021 6.25127 9.88124C6.18877 9.6604 6.15752 9.43332 6.15752 9.19999C6.15752 8.80832 6.24085 8.44165 6.40752 8.09999C6.57419 7.75832 6.80752 7.46665 7.10752 7.22499C7.33252 7.04165 7.58252 6.90207 7.85752 6.80624C8.13252 6.7104 8.41169 6.66249 8.69502 6.66249C9.04502 6.66249 9.37419 6.72915 9.68252 6.86249C9.99085 6.99582 10.2596 7.17707 10.4888 7.40624C10.7179 7.6354 10.8992 7.90415 11.0325 8.21249C11.1659 8.52082 11.2325 8.84999 11.2325 9.19999C11.2325 9.43332 11.2013 9.6604 11.1388 9.88124C11.0763 10.1021 10.9825 10.3125 10.8575 10.5125C10.7909 10.6208 10.7159 10.725 10.6325 10.825C10.5492 10.925 10.4575 11.0167 10.3575 11.1C10.1325 11.3083 9.87627 11.4667 9.58877 11.575C9.30127 11.6833 9.00335 11.7375 8.69502 11.7375ZM8.69502 7.46249C8.49502 7.46249 8.30335 7.49582 8.12002 7.56249C7.93669 7.62915 7.76585 7.72499 7.60752 7.84999C7.40752 8.01665 7.24919 8.21665 7.13252 8.44999C7.01585 8.68332 6.95752 8.93332 6.95752 9.19999C6.95752 9.35832 6.97835 9.51249 7.02002 9.66249C7.06169 9.81249 7.12419 9.95415 7.20752 10.0875C7.36585 10.3542 7.57835 10.5625 7.84502 10.7125C8.11169 10.8625 8.39502 10.9375 8.69502 10.9375C8.90335 10.9375 9.10544 10.9 9.30127 10.825C9.4971 10.75 9.67419 10.6417 9.83252 10.5C9.89919 10.4417 9.96169 10.3792 10.02 10.3125C10.0784 10.2458 10.1284 10.175 10.17 10.1C10.2534 9.95832 10.3179 9.81249 10.3638 9.66249C10.4096 9.51249 10.4325 9.35832 10.4325 9.19999C10.4325 8.72499 10.2617 8.31665 9.92002 7.97499C9.57835 7.63332 9.17002 7.46249 8.69502 7.46249ZM8.39502 10.125C8.34502 10.125 8.29502 10.1167 8.24502 10.1C8.19502 10.0833 8.14919 10.0542 8.10752 10.0125L7.58252 9.48749C7.50752 9.40415 7.47002 9.30832 7.47002 9.19999C7.47002 9.09165 7.50752 8.99582 7.58252 8.91249C7.65752 8.83749 7.75127 8.79999 7.86377 8.79999C7.97627 8.79999 8.07002 8.83749 8.14502 8.91249L8.39502 9.17499L9.25752 8.38749C9.33252 8.31249 9.42627 8.27707 9.53877 8.28124C9.65127 8.2854 9.74502 8.32499 9.82002 8.39999C9.89502 8.48332 9.93044 8.58124 9.92627 8.69374C9.9221 8.80624 9.87835 8.89999 9.79502 8.97499L8.65752 10.025C8.62419 10.0583 8.58252 10.0833 8.53252 10.1C8.48252 10.1167 8.43669 10.125 8.39502 10.125Z" fill="white"/>
</svg>
