<svg width="19" height="18" viewBox="0 0 19 18" fill="none" xmlns="http://www.w3.org/2000/svg">
<path d="M9.02539 16.3125C4.78789 16.3125 1.33789 12.8625 1.33789 8.625C1.33789 4.3875 4.78789 0.9375 9.02539 0.9375C13.2629 0.9375 16.7129 4.3875 16.7129 8.625C16.7129 12.8625 13.2629 16.3125 9.02539 16.3125ZM9.02539 2.0625C5.40289 2.0625 2.46289 5.01 2.46289 8.625C2.46289 12.24 5.40289 15.1875 9.02539 15.1875C12.6479 15.1875 15.5879 12.24 15.5879 8.625C15.5879 5.01 12.6479 2.0625 9.02539 2.0625Z" fill="black" fill-opacity="0.3"/>
<path d="M16.9005 17.0625C16.758 17.0625 16.6155 17.01 16.503 16.8975L15.003 15.3975C14.7855 15.18 14.7855 14.82 15.003 14.6025C15.2205 14.385 15.5805 14.385 15.798 14.6025L17.298 16.1025C17.5155 16.32 17.5155 16.68 17.298 16.8975C17.1855 17.01 17.043 17.0625 16.9005 17.0625Z" fill="black" fill-opacity="0.3"/>
</svg>
