<svg width="20" height="17" viewBox="0 0 20 17" fill="none" xmlns="http://www.w3.org/2000/svg">
<path d="M19.0625 12.4875L19.875 12.9562C19.9688 12.9875 20 13.1125 19.9688 13.2062C19.75 13.8937 19.4062 14.4875 18.9375 15.0187C18.875 15.0812 18.75 15.1125 18.6562 15.05L17.8438 14.5812C17.5 14.8625 17.125 15.1125 16.6875 15.2375V16.175C16.6875 16.3 16.625 16.3937 16.5312 16.3937C15.8438 16.55 15.1562 16.55 14.4375 16.3937C14.3438 16.3937 14.2812 16.3 14.2812 16.175V15.2375C13.8438 15.1125 13.4688 14.8625 13.125 14.5812L12.3125 15.05C12.2188 15.1125 12.0938 15.0812 12.0312 15.0187C11.5625 14.4875 11.1875 13.8937 11 13.2062C10.9688 13.1125 11 12.9875 11.0938 12.9562L11.9062 12.4875C11.8125 12.05 11.8125 11.5812 11.9062 11.1437L11.0938 10.675C11 10.6437 10.9688 10.5187 11 10.425C11.1875 9.73749 11.5625 9.14374 12.0312 8.61249C12.0938 8.54999 12.2188 8.51874 12.3125 8.58124L13.125 9.04999C13.4688 8.76874 13.8438 8.51874 14.2812 8.39374V7.45624C14.2812 7.33124 14.3438 7.23749 14.4375 7.23749C15.125 7.08124 15.8125 7.08124 16.5312 7.23749C16.625 7.23749 16.6875 7.33124 16.6875 7.45624V8.39374C17.125 8.51874 17.5 8.76874 17.8438 9.04999L18.6562 8.58124C18.75 8.51874 18.875 8.54999 18.9375 8.61249C19.4062 9.14374 19.75 9.73749 19.9688 10.425C20 10.5187 19.9688 10.6437 19.875 10.675L19.0625 11.1437C19.1562 11.5812 19.1562 12.05 19.0625 12.4875ZM15.5 13.3312C16.3125 13.3312 17 12.6437 17 11.8C17 10.9875 16.3125 10.3 15.5 10.3C14.6562 10.3 13.9688 10.9875 13.9688 11.8C13.9688 12.6437 14.6562 13.3312 15.5 13.3312ZM7 8.79999C4.78125 8.79999 3 7.01874 3 4.79999C3 2.61249 4.78125 0.799988 7 0.799988C9.1875 0.799988 11 2.61249 11 4.79999C11 7.01874 9.1875 8.79999 7 8.79999ZM13.2812 15.8937V16.175C13.2812 16.3 13.3125 16.425 13.3438 16.55C13.0938 16.7062 12.8125 16.8 12.5 16.8H1.5C0.65625 16.8 0 16.1437 0 15.3V14.0187C0 11.7062 1.875 9.79999 4.1875 9.79999H4.71875C5.40625 10.1437 6.1875 10.3 7 10.3C7.8125 10.3 8.5625 10.1437 9.25 9.79999H9.78125C9.90625 9.79999 10.0312 9.83124 10.1562 9.86249C10.125 9.95624 10.0625 10.0187 10.0312 10.1125C9.875 10.675 10.0938 11.2687 10.5938 11.55L10.8438 11.7062C10.8438 11.7687 10.8438 11.8625 10.8438 11.925L10.5938 12.0812C10.0938 12.3625 9.875 12.9562 10.0312 13.5187C10.2812 14.3 10.7188 15.0812 11.3125 15.675C11.5312 15.925 11.875 16.0812 12.1875 16.0812C12.4062 16.0812 12.625 16.0187 12.8125 15.925L13.0625 15.7687C13.125 15.8 13.1875 15.8625 13.2812 15.8937Z" fill="#757575"/>
</svg>
