<svg width="22" height="22" viewBox="0 0 22 22" fill="none" xmlns="http://www.w3.org/2000/svg">
<g clip-path="url(#clip0_6_48)">
<path d="M20.5456 10.7128C18.4861 6.90556 14.8745 4.60167 10.8778 4.60167C6.88112 4.60167 3.26334 6.90556 1.22223 10.7128L1.05112 11L1.21001 11.2933C3.26945 15.1006 6.88112 17.4044 10.8778 17.4044C14.8745 17.4044 18.4922 15.1311 20.5456 11.2933L20.7044 11L20.5456 10.7128ZM10.8778 16.1517C7.43723 16.1517 4.27778 14.2328 2.44445 11C4.27778 7.76722 7.43723 5.84833 10.8778 5.84833C14.3183 5.84833 17.4411 7.77333 19.305 11C17.4411 14.2328 14.3122 16.1517 10.8778 16.1517Z" fill="#C9C9C9"/>
<path d="M11.055 6.82611C10.2264 6.83216 9.41819 7.08362 8.73242 7.54874C8.04666 8.01386 7.51411 8.67177 7.20205 9.43937C6.88998 10.207 6.81238 11.0498 6.97907 11.8615C7.14575 12.6732 7.54923 13.4173 8.13856 13.9998C8.72788 14.5823 9.4766 14.9771 10.2902 15.1343C11.1037 15.2915 11.9456 15.2041 12.7096 14.8831C13.4735 14.5621 14.1251 14.022 14.5822 13.3308C15.0393 12.6397 15.2814 11.8286 15.2778 11C15.2754 10.4484 15.1642 9.90276 14.9505 9.39426C14.7368 8.88575 14.4249 8.42441 14.0326 8.03666C13.6404 7.64892 13.1754 7.3424 12.6644 7.13467C12.1535 6.92694 11.6066 6.82209 11.055 6.82611ZM11.055 13.9883C10.4697 13.9823 9.89925 13.8035 9.41528 13.4743C8.9313 13.1451 8.55538 12.6802 8.33473 12.1381C8.11408 11.596 8.05854 11.0007 8.17509 10.4271C8.29163 9.85351 8.57507 9.32714 8.9898 8.9141C9.40452 8.50107 9.93205 8.21978 10.5061 8.10557C11.0802 7.99137 11.6752 8.04934 12.2164 8.2722C12.7577 8.49506 13.221 8.87287 13.5482 9.35819C13.8754 9.84351 14.0519 10.4147 14.0556 11C14.0572 11.3939 13.9806 11.7842 13.8302 12.1483C13.6799 12.5124 13.4587 12.8431 13.1796 13.121C12.9005 13.399 12.569 13.6188 12.2043 13.7677C11.8395 13.9166 11.4489 13.9916 11.055 13.9883Z" fill="#C9C9C9"/>
</g>
<defs>
<clipPath id="clip0_6_48">
<rect width="22" height="22" fill="white"/>
</clipPath>
</defs>
</svg>
