<svg width="16" height="17" viewBox="0 0 16 17" fill="none" xmlns="http://www.w3.org/2000/svg">
<path d="M13.9688 4.30005C15.0625 4.30005 16 5.2063 16 6.30005C16 7.05005 15.5938 7.7063 15 8.05005V11.55C15 14.4563 12.5312 16.8 9.5 16.8C6.5 16.8 4.0625 14.55 4 11.7063C1.71875 11.2375 0 9.23755 0 6.80005V1.9563C0 1.61255 0.25 1.30005 0.59375 1.2063L2.5625 0.831299C2.96875 0.737549 3.34375 1.0188 3.4375 1.42505L3.53125 1.92505C3.625 2.3313 3.34375 2.7063 2.9375 2.80005L1.96875 2.98755V6.80005C1.96875 8.48755 3.34375 9.8313 5 9.80005C6.65625 9.80005 7.96875 8.42505 7.96875 6.7688V2.98755L7.03125 2.80005C6.625 2.7063 6.34375 2.30005 6.4375 1.8938L6.53125 1.42505C6.625 1.0188 7 0.737549 7.40625 0.831299L9.375 1.23755C9.71875 1.30005 10 1.61255 10 1.9563V6.80005C10 9.23755 8.28125 11.2375 6 11.7063C6.0625 13.425 7.625 14.8 9.5 14.8C11.4062 14.8 13 13.3625 13 11.55V8.05005C12.375 7.7063 11.9688 7.0188 12 6.2688C12 5.2063 12.875 4.3313 13.9688 4.30005ZM14 6.80005C14.25 6.80005 14.5 6.5813 14.5 6.30005C14.5 6.05005 14.25 5.80005 14 5.80005C13.7188 5.80005 13.5 6.05005 13.5 6.30005C13.5 6.5813 13.7188 6.80005 14 6.80005Z" fill="#757575"/>
</svg>
