<svg width="16" height="17" viewBox="0 0 16 17" fill="none" xmlns="http://www.w3.org/2000/svg">
<path d="M11.1667 3.27334V2.23334C11.1667 1.96 10.94 1.73334 10.6667 1.73334C10.3933 1.73334 10.1667 1.96 10.1667 2.23334V3.23334H5.83332V2.23334C5.83332 1.96 5.60666 1.73334 5.33332 1.73334C5.05999 1.73334 4.83332 1.96 4.83332 2.23334V3.27334C3.03332 3.44 2.15999 4.51334 2.02666 6.10667C2.01332 6.3 2.17332 6.46 2.35999 6.46H13.64C13.8333 6.46 13.9933 6.29334 13.9733 6.10667C13.84 4.51334 12.9667 3.44 11.1667 3.27334Z" fill="#1DB9AA"/>
<path d="M13.3333 7.45999H2.66667C2.3 7.45999 2 7.75999 2 8.12666V12.2333C2 14.2333 3 15.5667 5.33333 15.5667H10.6667C13 15.5667 14 14.2333 14 12.2333V8.12666C14 7.75999 13.7 7.45999 13.3333 7.45999ZM6.14 13.04C6.10667 13.0667 6.07333 13.1 6.04 13.12C6 13.1467 5.96 13.1667 5.92 13.18C5.88 13.2 5.84 13.2133 5.8 13.22C5.75333 13.2267 5.71333 13.2333 5.66667 13.2333C5.58 13.2333 5.49333 13.2133 5.41333 13.18C5.32667 13.1467 5.26 13.1 5.19333 13.04C5.07333 12.9133 5 12.74 5 12.5667C5 12.3933 5.07333 12.22 5.19333 12.0933C5.26 12.0333 5.32667 11.9867 5.41333 11.9533C5.53333 11.9 5.66667 11.8867 5.8 11.9133C5.84 11.92 5.88 11.9333 5.92 11.9533C5.96 11.9667 6 11.9867 6.04 12.0133C6.07333 12.04 6.10667 12.0667 6.14 12.0933C6.26 12.22 6.33333 12.3933 6.33333 12.5667C6.33333 12.74 6.26 12.9133 6.14 13.04ZM6.14 10.7067C6.01333 10.8267 5.84 10.9 5.66667 10.9C5.49333 10.9 5.32 10.8267 5.19333 10.7067C5.07333 10.58 5 10.4067 5 10.2333C5 10.06 5.07333 9.88666 5.19333 9.75999C5.38 9.57332 5.67333 9.51332 5.92 9.61999C6.00667 9.65332 6.08 9.69999 6.14 9.75999C6.26 9.88666 6.33333 10.06 6.33333 10.2333C6.33333 10.4067 6.26 10.58 6.14 10.7067ZM8.47333 13.04C8.34667 13.16 8.17333 13.2333 8 13.2333C7.82667 13.2333 7.65333 13.16 7.52667 13.04C7.40667 12.9133 7.33333 12.74 7.33333 12.5667C7.33333 12.3933 7.40667 12.22 7.52667 12.0933C7.77333 11.8467 8.22667 11.8467 8.47333 12.0933C8.59333 12.22 8.66667 12.3933 8.66667 12.5667C8.66667 12.74 8.59333 12.9133 8.47333 13.04ZM8.47333 10.7067C8.44 10.7333 8.40667 10.76 8.37333 10.7867C8.33333 10.8133 8.29333 10.8333 8.25333 10.8467C8.21333 10.8667 8.17333 10.88 8.13333 10.8867C8.08667 10.8933 8.04667 10.9 8 10.9C7.82667 10.9 7.65333 10.8267 7.52667 10.7067C7.40667 10.58 7.33333 10.4067 7.33333 10.2333C7.33333 10.06 7.40667 9.88666 7.52667 9.75999C7.58667 9.69999 7.66 9.65332 7.74667 9.61999C7.99333 9.51332 8.28667 9.57332 8.47333 9.75999C8.59333 9.88666 8.66667 10.06 8.66667 10.2333C8.66667 10.4067 8.59333 10.58 8.47333 10.7067ZM10.8067 13.04C10.68 13.16 10.5067 13.2333 10.3333 13.2333C10.16 13.2333 9.98667 13.16 9.86 13.04C9.74 12.9133 9.66667 12.74 9.66667 12.5667C9.66667 12.3933 9.74 12.22 9.86 12.0933C10.1067 11.8467 10.56 11.8467 10.8067 12.0933C10.9267 12.22 11 12.3933 11 12.5667C11 12.74 10.9267 12.9133 10.8067 13.04ZM10.8067 10.7067C10.7733 10.7333 10.74 10.76 10.7067 10.7867C10.6667 10.8133 10.6267 10.8333 10.5867 10.8467C10.5467 10.8667 10.5067 10.88 10.4667 10.8867C10.42 10.8933 10.3733 10.9 10.3333 10.9C10.16 10.9 9.98667 10.8267 9.86 10.7067C9.74 10.58 9.66667 10.4067 9.66667 10.2333C9.66667 10.06 9.74 9.88666 9.86 9.75999C9.92667 9.69999 9.99333 9.65332 10.08 9.61999C10.2 9.56666 10.3333 9.55332 10.4667 9.57999C10.5067 9.58666 10.5467 9.59999 10.5867 9.61999C10.6267 9.63332 10.6667 9.65332 10.7067 9.67999C10.74 9.70666 10.7733 9.73332 10.8067 9.75999C10.9267 9.88666 11 10.06 11 10.2333C11 10.4067 10.9267 10.58 10.8067 10.7067Z" fill="#1DB9AA"/>
</svg>
