<svg width="24" height="25" viewBox="0 0 24 25" fill="none" xmlns="http://www.w3.org/2000/svg">
<path d="M11.05 15.75L9.2 17.6C8.81 17.99 8.19 17.99 7.79 17.61C7.68 17.5 7.57 17.4 7.46 17.29C6.43 16.25 5.5 15.16 4.67 14.02C3.85 12.88 3.19 11.74 2.71 10.61C2.24 9.46999 2 8.37999 2 7.33999C2 6.65999 2.12 6.00999 2.36 5.40999C2.6 4.79999 2.98 4.23999 3.51 3.73999C4.15 3.10999 4.85 2.79999 5.59 2.79999C5.87 2.79999 6.15 2.85999 6.4 2.97999C6.66 3.09999 6.89 3.27999 7.07 3.53999L9.39 6.80999C9.57 7.05999 9.7 7.28999 9.79 7.50999C9.88 7.71999 9.93 7.92999 9.93 8.11999C9.93 8.35999 9.86 8.59999 9.72 8.82999C9.59 9.05999 9.4 9.29999 9.16 9.53999L8.4 10.33C8.29 10.44 8.24 10.57 8.24 10.73C8.24 10.81 8.25 10.88 8.27 10.96C8.3 11.04 8.33 11.1 8.35 11.16C8.53 11.49 8.84 11.92 9.28 12.44C9.73 12.96 10.21 13.49 10.73 14.02C10.83 14.12 10.94 14.22 11.04 14.32C11.44 14.71 11.45 15.35 11.05 15.75Z" fill="#0E82FD"/>
<path d="M21.97 19.13C21.97 19.41 21.92 19.7 21.82 19.98C21.79 20.06 21.76 20.14 21.72 20.22C21.55 20.58 21.33 20.92 21.04 21.24C20.55 21.78 20.01 22.17 19.4 22.42C19.39 22.42 19.38 22.43 19.37 22.43C18.78 22.67 18.14 22.8 17.45 22.8C16.43 22.8 15.34 22.56 14.19 22.07C13.04 21.58 11.89 20.92 10.75 20.09C10.36 19.8 9.97001 19.51 9.60001 19.2L12.87 15.93C13.15 16.14 13.4 16.3 13.61 16.41C13.66 16.43 13.72 16.46 13.79 16.49C13.87 16.52 13.95 16.53 14.04 16.53C14.21 16.53 14.34 16.47 14.45 16.36L15.21 15.61C15.46 15.36 15.7 15.17 15.93 15.05C16.16 14.91 16.39 14.84 16.64 14.84C16.83 14.84 17.03 14.88 17.25 14.97C17.47 15.06 17.7 15.19 17.95 15.36L21.26 17.71C21.52 17.89 21.7 18.1 21.81 18.35C21.91 18.6 21.97 18.85 21.97 19.13Z" fill="#0E82FD"/>
</svg>
