<svg width="15" height="16" viewBox="0 0 15 16" fill="none" xmlns="http://www.w3.org/2000/svg">
<path d="M4.81875 0.553125L4.59375 1H1.59375C1.04062 1 0.59375 1.44687 0.59375 2C0.59375 2.55312 1.04062 3 1.59375 3H13.5938C14.1469 3 14.5938 2.55312 14.5938 2C14.5938 1.44687 14.1469 1 13.5938 1H10.5938L10.3687 0.553125C10.2 0.2125 9.85313 0 9.475 0H5.7125C5.33437 0 4.9875 0.2125 4.81875 0.553125ZM13.5938 4H1.59375L2.25625 14.5938C2.30625 15.3844 2.9625 16 3.75312 16H11.4344C12.225 16 12.8812 15.3844 12.9312 14.5938L13.5938 4Z" fill="#ED0006"/>
</svg>
