<svg width="15" height="16" viewBox="0 0 15 16" fill="none" xmlns="http://www.w3.org/2000/svg">
<path d="M4.35337 5.39867L4.44671 5.39067C4.4805 5.38693 4.51282 5.37479 4.54071 5.35533L4.54004 5.356C4.62937 5.664 4.73871 5.988 4.87537 6.32733C5.05071 6.77133 5.22337 7.136 5.41671 7.488L5.39004 7.43467C5.37404 7.67733 5.35471 7.92667 5.32937 8.168C5.31827 8.31038 5.28938 8.4508 5.24337 8.586L5.24671 8.574C5.23871 8.57733 5.22737 9.96067 5.22737 9.96067C5.22762 10.3899 5.37228 10.8066 5.63808 11.1436C5.90388 11.4806 6.27535 11.7184 6.69271 11.8187L6.70604 11.8213C6.72457 11.7732 6.75721 11.7318 6.79968 11.7025C6.84215 11.6733 6.89247 11.6575 6.94404 11.6573H7.32671C7.37781 11.658 7.42757 11.6738 7.46979 11.7026C7.512 11.7314 7.54478 11.772 7.56404 11.8193L7.56471 11.8213C7.98559 11.724 8.36131 11.4875 8.63101 11.1501C8.90071 10.8126 9.04859 10.394 9.05071 9.962C9.05071 9.962 9.02737 8.584 9.01537 8.57467C8.97564 8.4458 8.9484 8.31342 8.93404 8.17933L8.93337 8.16933C8.91004 7.92667 8.89471 7.68333 8.87271 7.436C9.03737 7.13867 9.21004 6.77467 9.36204 6.39933L9.38737 6.32867C9.52404 5.98933 9.63004 5.666 9.72271 5.35733C9.7501 5.37678 9.78199 5.38894 9.81537 5.39267H9.81604L9.91004 5.40067C10.0234 5.41267 10.1234 5.31933 10.1327 5.17467L10.234 3.88733V3.886C10.234 3.8342 10.2151 3.78418 10.1808 3.7453C10.1466 3.70641 10.0994 3.6813 10.048 3.67467H10.0354C10.1242 3.00433 10.0692 2.32276 9.87404 1.67533L9.88271 1.70933C9.69467 1.29181 9.40868 0.925816 9.04902 0.642401C8.68935 0.358987 8.26662 0.16652 7.81671 0.081333L7.79937 0.0786664C7.58124 0.0349317 7.35977 0.00995165 7.13737 0.00399971H7.12337C6.89073 0.00816578 6.65901 0.0345072 6.43137 0.0826664L6.45537 0.0786664C6.00569 0.162134 5.58255 0.352105 5.22137 0.63268C4.86018 0.913254 4.57146 1.27627 4.37937 1.69133L4.37204 1.70933C4.1801 2.35427 4.12895 3.03291 4.22204 3.69933L4.21937 3.67467C4.16786 3.68024 4.12021 3.7046 4.08552 3.7431C4.05084 3.78159 4.03156 3.83152 4.03137 3.88333V3.888L4.13271 5.17533C4.14204 5.32333 4.24337 5.41267 4.35271 5.40067L4.35337 5.39867Z" fill="#0E82FD"/>
<path d="M14.2774 13.9187C14.2307 11.892 14.0281 11.4333 13.9187 11.1227C13.8754 10.998 13.8401 10.1553 12.4481 9.60867C11.5947 9.27267 10.4934 9.266 9.56139 8.872V9.968C9.56043 10.5299 9.36409 11.0739 9.00601 11.5069C8.64794 11.9399 8.15043 12.2349 7.59873 12.3413L7.58339 12.344C7.5734 12.4031 7.54297 12.4569 7.4974 12.4959C7.45183 12.5349 7.39403 12.5566 7.33406 12.5573H7.32206V13.384C7.32206 13.7719 7.47616 14.144 7.75046 14.4183C8.02477 14.6926 8.3968 14.8467 8.78473 14.8467C9.17265 14.8467 9.54469 14.6926 9.81899 14.4183C10.0933 14.144 10.2474 13.7719 10.2474 13.384V12.8067C10.0461 12.7771 9.86252 12.6749 9.7315 12.5192C9.60048 12.3634 9.53107 12.1651 9.53639 11.9617C9.54172 11.7583 9.62141 11.5639 9.76039 11.4152C9.89938 11.2666 10.088 11.174 10.2906 11.1551C10.4932 11.1361 10.6958 11.1921 10.8599 11.3124C11.024 11.4327 11.1384 11.6089 11.1814 11.8078C11.2243 12.0067 11.1929 12.2145 11.093 12.3918C10.9931 12.5691 10.8318 12.7037 10.6394 12.77L10.6334 12.772V13.4153C10.6334 13.9058 10.4386 14.3762 10.0917 14.723C9.74492 15.0698 9.27453 15.2647 8.78406 15.2647C8.29359 15.2647 7.8232 15.0698 7.47638 14.723C7.12957 14.3762 6.93473 13.9058 6.93473 13.4153V13.382V13.3833V12.5493C6.87764 12.5454 6.82354 12.5224 6.78119 12.4839C6.73884 12.4454 6.71072 12.3938 6.70139 12.3373V12.336C6.14909 12.2307 5.65059 11.9366 5.29131 11.5041C4.93203 11.0716 4.73433 10.5276 4.73206 9.96533V8.86067C3.79606 9.26267 2.68806 9.27067 1.83006 9.60733C0.43406 10.1533 0.40206 10.994 0.359394 11.1207C0.252727 11.4327 0.0473937 11.8893 0.00072706 13.9173C-0.00727294 14.184 0.000727097 14.5927 0.804727 14.95C2.55539 15.6367 4.81073 15.85 7.03406 16.0033H7.24739C9.47539 15.8513 11.7274 15.6387 13.4767 14.95C14.2774 14.5947 14.2847 14.188 14.2774 13.9187ZM4.49006 13.092H3.65939V13.926H3.06606V13.0947H2.23539V12.5013H3.06606V11.6707H3.65939V12.5013H4.49006V13.092Z" fill="#0E82FD"/>
<path d="M10.8166 11.9767C10.8166 11.8577 10.7692 11.743 10.6851 11.6589C10.6009 11.5748 10.4868 11.5276 10.3678 11.5277C10.2488 11.5277 10.1348 11.575 10.0507 11.6591C9.96656 11.7433 9.91931 11.8574 9.91931 11.9763C9.91931 12.0953 9.96656 12.2094 10.0507 12.2935C10.1348 12.3777 10.2488 12.425 10.3678 12.425C10.4868 12.425 10.6009 12.3778 10.6851 12.2938C10.7692 12.2097 10.8166 12.0956 10.8166 11.9767Z" fill="#0E82FD"/>
</svg>
