<svg width="20" height="18" viewBox="0 0 20 18" fill="none" xmlns="http://www.w3.org/2000/svg">
<path d="M15 0.299988H5C2 0.299988 0 1.79999 0 5.29999V12.3C0 15.8 2 17.3 5 17.3H15C18 17.3 20 15.8 20 12.3V5.29999C20 1.79999 18 0.299988 15 0.299988ZM15.47 6.38999L12.34 8.88999C11.68 9.41999 10.84 9.67999 10 9.67999C9.16 9.67999 8.31 9.41999 7.66 8.88999L4.53 6.38999C4.21 6.12999 4.16 5.64999 4.41 5.32999C4.67 5.00999 5.14 4.94999 5.46 5.20999L8.59 7.70999C9.35 8.31999 10.64 8.31999 11.4 7.70999L14.53 5.20999C14.85 4.94999 15.33 4.99999 15.58 5.32999C15.84 5.64999 15.79 6.12999 15.47 6.38999Z" fill="#0E82FD"/>
</svg>
