<svg width="18" height="22" viewBox="0 0 18 22" fill="none" xmlns="http://www.w3.org/2000/svg">
<path d="M17.62 7.24999C16.57 2.62999 12.54 0.549988 9 0.549988C9 0.549988 9 0.549988 8.99 0.549988C5.46 0.549988 1.42 2.61999 0.370004 7.23999C-0.799996 12.4 2.36 16.77 5.22 19.52C6.28 20.54 7.64 21.05 9 21.05C10.36 21.05 11.72 20.54 12.77 19.52C15.63 16.77 18.79 12.41 17.62 7.24999ZM9 12.26C7.26 12.26 5.85 10.85 5.85 9.10999C5.85 7.36999 7.26 5.95999 9 5.95999C10.74 5.95999 12.15 7.36999 12.15 9.10999C12.15 10.85 10.74 12.26 9 12.26Z" fill="#0E82FD"/>
</svg>
