<svg width="16" height="14" viewBox="0 0 16 14" fill="none" xmlns="http://www.w3.org/2000/svg">
<path d="M15.5312 7.69122L10.2812 12.9412C9.8125 13.41 9 13.0975 9 12.41V9.40997H4.75C4.3125 9.40997 4 9.09747 4 8.65997V5.65997C4 5.25372 4.3125 4.90997 4.75 4.90997H9V1.90997C9 1.25372 9.78125 0.909973 10.2812 1.37872L15.5312 6.62872C15.8125 6.94122 15.8125 7.40997 15.5312 7.69122ZM6 12.785C6 13.0037 5.8125 13.16 5.625 13.16H3C1.34375 13.16 0 11.8162 0 10.16V4.15997C0 2.50372 1.34375 1.15997 3 1.15997H5.625C5.8125 1.15997 6 1.34747 6 1.53497V2.78497C6 3.00372 5.8125 3.15997 5.625 3.15997H3C2.4375 3.15997 2 3.62872 2 4.15997V10.16C2 10.7225 2.4375 11.16 3 11.16H5.625C5.8125 11.16 6 11.3475 6 11.535V12.785Z" fill="#757575"/>
</svg>
