<svg width="14" height="15" viewBox="0 0 14 15" fill="none" xmlns="http://www.w3.org/2000/svg">
<path d="M7.00033 14.1055C6.59783 14.1055 6.21866 13.9013 5.95033 13.5455L5.07533 12.3788C5.05783 12.3555 4.98783 12.3263 4.95866 12.3205H4.66699C2.23449 12.3205 0.729492 11.6613 0.729492 8.38298V5.46631C0.729492 2.88798 2.08866 1.52881 4.66699 1.52881H9.33366C11.912 1.52881 13.2712 2.88798 13.2712 5.46631V8.38298C13.2712 10.9613 11.912 12.3205 9.33366 12.3205H9.04199C8.99533 12.3205 8.95449 12.3438 8.92533 12.3788L8.05033 13.5455C7.78199 13.9013 7.40283 14.1055 7.00033 14.1055ZM4.66699 2.40381C2.57866 2.40381 1.60449 3.37798 1.60449 5.46631V8.38298C1.60449 11.0196 2.50866 11.4455 4.66699 11.4455H4.95866C5.25616 11.4455 5.59449 11.6146 5.77533 11.8538L6.65033 13.0205C6.85449 13.2888 7.14616 13.2888 7.35033 13.0205L8.22533 11.8538C8.41783 11.5971 8.72116 11.4455 9.04199 11.4455H9.33366C11.422 11.4455 12.3962 10.4713 12.3962 8.38298V5.46631C12.3962 3.37798 11.422 2.40381 9.33366 2.40381H4.66699Z" fill="#6B7280"/>
<path d="M9.91634 5.90381H4.08301C3.84384 5.90381 3.64551 5.70548 3.64551 5.46631C3.64551 5.22714 3.84384 5.02881 4.08301 5.02881H9.91634C10.1555 5.02881 10.3538 5.22714 10.3538 5.46631C10.3538 5.70548 10.1555 5.90381 9.91634 5.90381Z" fill="#6B7280"/>
<path d="M7.58301 8.8208H4.08301C3.84384 8.8208 3.64551 8.62247 3.64551 8.3833C3.64551 8.14413 3.84384 7.9458 4.08301 7.9458H7.58301C7.82217 7.9458 8.02051 8.14413 8.02051 8.3833C8.02051 8.62247 7.82217 8.8208 7.58301 8.8208Z" fill="#6B7280"/>
</svg>
