<svg width="14" height="15" viewBox="0 0 14 15" fill="none" xmlns="http://www.w3.org/2000/svg">
<path d="M7 6.93664C6.76083 6.93664 6.5625 6.73831 6.5625 6.49914V4.55664C6.5625 4.31747 6.76083 4.11914 7 4.11914C7.23917 4.11914 7.4375 4.31747 7.4375 4.55664V6.49914C7.4375 6.74414 7.23917 6.93664 7 6.93664Z" fill="#6B7280"/>
<path d="M7.01151 12.6704C5.50651 12.6704 4.00734 12.4313 2.57817 11.9529C2.04734 11.7779 1.64484 11.3988 1.46984 10.9204C1.29484 10.4421 1.35317 9.89378 1.63901 9.41545L2.37984 8.17878C2.54317 7.90462 2.68901 7.39128 2.68901 7.07045V5.84545C2.68901 3.45962 4.62567 1.52295 7.01151 1.52295C9.39734 1.52295 11.334 3.45962 11.334 5.84545V7.07045C11.334 7.38545 11.4798 7.90462 11.6432 8.17878L12.384 9.41545C12.6582 9.87045 12.7048 10.4129 12.524 10.9088C12.3432 11.4046 11.9465 11.7838 11.4448 11.9529C10.0157 12.4371 8.51651 12.6704 7.01151 12.6704ZM7.01151 2.40378C5.10984 2.40378 3.56401 3.94962 3.56401 5.85128V7.07628C3.56401 7.54878 3.37734 8.23128 3.13234 8.63378L2.39151 9.87628C2.23984 10.1271 2.20484 10.3954 2.29234 10.6288C2.37984 10.8621 2.57817 11.0371 2.85817 11.1304C5.54151 12.0229 8.49317 12.0229 11.1765 11.1304C11.4273 11.0488 11.6198 10.8621 11.7073 10.6171C11.8007 10.3721 11.7715 10.1038 11.6373 9.87628L10.8965 8.63962C10.6515 8.23712 10.4648 7.55462 10.4648 7.08212V5.85712C10.459 3.94962 8.91317 2.40378 7.01151 2.40378Z" fill="#6B7280"/>
<path d="M7.00012 14.1583C6.37595 14.1583 5.76345 13.9017 5.32012 13.4583C4.87678 13.015 4.62012 12.4025 4.62012 11.7783H5.49512C5.49512 12.175 5.65845 12.56 5.93845 12.84C6.21845 13.12 6.60345 13.2833 7.00012 13.2833C7.82845 13.2833 8.50512 12.6067 8.50512 11.7783H9.38012C9.38012 13.0908 8.31262 14.1583 7.00012 14.1583Z" fill="#6B7280"/>
</svg>
