<svg width="12" height="17" viewBox="0 0 12 17" fill="none" xmlns="http://www.w3.org/2000/svg">
<path d="M11.25 0.0799866C11.6562 0.0799866 12 0.423737 12 0.829987V1.32999C12 1.76749 11.6562 2.07999 11.25 2.07999C11.25 4.92374 9.625 7.32999 7.46875 8.07999C9.625 8.86124 11.25 11.2675 11.25 14.08C11.6562 14.08 12 14.4237 12 14.83V15.33C12 15.7675 11.6562 16.08 11.25 16.08H0.75C0.3125 16.08 0 15.7675 0 15.33V14.83C0 14.4237 0.3125 14.08 0.75 14.08C0.75 11.2675 2.34375 8.86124 4.5 8.07999C2.34375 7.32999 0.75 4.92374 0.75 2.07999C0.3125 2.07999 0 1.76749 0 1.32999V0.829987C0 0.423737 0.3125 0.0799866 0.75 0.0799866H11.25ZM9.25 14.08C9.25 11.6737 7.78125 9.57999 6 9.57999C4.1875 9.57999 2.75 11.6737 2.75 14.08H9.25Z" fill="#757575"/>
</svg>
