<svg width="25" height="25" viewBox="0 0 25 25" fill="none" xmlns="http://www.w3.org/2000/svg">
<path d="M9.80078 10.95C8.28078 10.95 7.05078 9.72001 7.05078 8.20001C7.05078 6.68001 8.28078 5.45001 9.80078 5.45001C11.3208 5.45001 12.5508 6.68001 12.5508 8.20001C12.5508 9.72001 11.3208 10.95 9.80078 10.95ZM9.80078 6.95001C9.11078 6.95001 8.55078 7.51001 8.55078 8.20001C8.55078 8.89001 9.11078 9.45001 9.80078 9.45001C10.4908 9.45001 11.0508 8.89001 11.0508 8.20001C11.0508 7.51001 10.4908 6.95001 9.80078 6.95001Z" fill="black" fill-opacity="0.7"/>
<path d="M15.8008 22.95H9.80078C4.37078 22.95 2.05078 20.63 2.05078 15.2V9.20001C2.05078 3.77001 4.37078 1.45001 9.80078 1.45001H13.8008C14.2108 1.45001 14.5508 1.79001 14.5508 2.20001C14.5508 2.61001 14.2108 2.95001 13.8008 2.95001H9.80078C5.19078 2.95001 3.55078 4.59001 3.55078 9.20001V15.2C3.55078 19.81 5.19078 21.45 9.80078 21.45H15.8008C20.4108 21.45 22.0508 19.81 22.0508 15.2V10.2C22.0508 9.79001 22.3908 9.45001 22.8008 9.45001C23.2108 9.45001 23.5508 9.79001 23.5508 10.2V15.2C23.5508 20.63 21.2308 22.95 15.8008 22.95Z" fill="black" fill-opacity="0.7"/>
<path d="M18.8008 8.95001C18.3908 8.95001 18.0508 8.61001 18.0508 8.20001V2.20001C18.0508 1.90001 18.2308 1.62001 18.5108 1.51001C18.7908 1.40001 19.1108 1.46001 19.3308 1.67001L21.3308 3.67001C21.6208 3.96001 21.6208 4.44001 21.3308 4.73001C21.0408 5.02001 20.5608 5.02001 20.2708 4.73001L19.5508 4.01001V8.20001C19.5508 8.61001 19.2108 8.95001 18.8008 8.95001Z" fill="black" fill-opacity="0.7"/>
<path d="M16.8002 4.95001C16.6102 4.95001 16.4202 4.88001 16.2702 4.73001C15.9802 4.44001 15.9802 3.96001 16.2702 3.67001L18.2702 1.67001C18.5602 1.38001 19.0402 1.38001 19.3302 1.67001C19.6202 1.96001 19.6202 2.44001 19.3302 2.73001L17.3302 4.73001C17.1802 4.88001 16.9902 4.95001 16.8002 4.95001Z" fill="black" fill-opacity="0.7"/>
<path d="M3.4701 19.9C3.2301 19.9 2.9901 19.78 2.8501 19.57C2.6201 19.23 2.7101 18.76 3.0501 18.53L7.9801 15.22C9.0601 14.5 10.5501 14.58 11.5301 15.41L11.8601 15.7C12.3601 16.13 13.2101 16.13 13.7001 15.7L17.8601 12.13C18.9201 11.22 20.5901 11.22 21.6601 12.13L23.2901 13.53C23.6001 13.8 23.6401 14.27 23.3701 14.59C23.1001 14.9 22.6201 14.94 22.3101 14.67L20.6801 13.27C20.1801 12.84 19.3401 12.84 18.8401 13.27L14.6801 16.84C13.6201 17.75 11.9501 17.75 10.8801 16.84L10.5501 16.55C10.0901 16.16 9.3301 16.12 8.8201 16.47L3.9001 19.78C3.7601 19.86 3.6101 19.9 3.4701 19.9Z" fill="black" fill-opacity="0.7"/>
</svg>
