<svg width="16" height="12" viewBox="0 0 16 12" fill="none" xmlns="http://www.w3.org/2000/svg">
<path d="M8 2.98749V3.01483C9.69531 3.01483 11.0625 4.38202 11.0625 6.04999C11.0625 7.7453 9.69531 9.11249 8 9.11249C6.30469 9.11249 4.9375 7.7453 4.9375 6.04999C4.9375 5.74921 4.99219 5.47577 5.07422 5.20233C5.26562 5.33905 5.53906 5.39374 5.8125 5.39374C6.63281 5.39374 7.34375 4.71014 7.34375 3.86249C7.31641 3.61639 7.26172 3.34296 7.125 3.12421C7.39844 3.04218 7.69922 3.01483 8 2.98749ZM15.7656 5.66718C15.8203 5.77655 15.8477 5.91327 15.8477 6.07733C15.8477 6.21405 15.8203 6.35077 15.7656 6.46014C14.2891 9.35858 11.3359 11.3 8 11.3C4.63672 11.3 1.68359 9.35858 0.207031 6.46014C0.152344 6.35077 0.125 6.21405 0.125 6.04999C0.125 5.91327 0.152344 5.77655 0.207031 5.66718C1.68359 2.76874 4.63672 0.799988 8 0.799988C11.3359 0.799988 14.2891 2.76874 15.7656 5.66718ZM8 9.98749C10.6797 9.98749 13.168 8.48358 14.4805 6.04999C13.168 3.61639 10.6797 2.11249 8 2.11249C5.29297 2.11249 2.80469 3.61639 1.49219 6.04999C2.80469 8.48358 5.29297 9.98749 8 9.98749Z" fill="#1DB9AA"/>
</svg>
