<svg width="19" height="19" viewBox="0 0 19 19" fill="none" xmlns="http://www.w3.org/2000/svg">
<path d="M16.7773 17.3625H1.77734C1.46984 17.3625 1.21484 17.1075 1.21484 16.8C1.21484 16.4925 1.46984 16.2375 1.77734 16.2375H16.7773C17.0848 16.2375 17.3398 16.4925 17.3398 16.8C17.3398 17.1075 17.0848 17.3625 16.7773 17.3625Z" fill="#0E82FD"/>
<path d="M16.0273 17.3625H2.52734C2.21984 17.3625 1.96484 17.1075 1.96484 16.8V4.79999C1.96484 2.53499 3.26234 1.23749 5.52734 1.23749H13.0273C15.2923 1.23749 16.5898 2.53499 16.5898 4.79999V16.8C16.5898 17.1075 16.3348 17.3625 16.0273 17.3625ZM3.08984 16.2375H15.4648V4.79999C15.4648 3.13499 14.6923 2.36249 13.0273 2.36249H5.52734C3.86234 2.36249 3.08984 3.13499 3.08984 4.79999V16.2375Z" fill="#0E82FD"/>
<path d="M11.5273 17.3625H7.02734C6.71984 17.3625 6.46484 17.1075 6.46484 16.8V12.255C6.46484 11.5575 7.03485 10.9875 7.73235 10.9875H10.8298C11.5273 10.9875 12.0973 11.5575 12.0973 12.255V16.8C12.0898 17.1075 11.8348 17.3625 11.5273 17.3625ZM7.58984 16.2375H10.9648V12.255C10.9648 12.18 10.9048 12.1125 10.8223 12.1125H7.72484C7.64984 12.1125 7.58235 12.1725 7.58235 12.255V16.2375H7.58984Z" fill="#0E82FD"/>
<path d="M9.27734 9.11249C8.96984 9.11249 8.71484 8.85749 8.71484 8.54999V4.79999C8.71484 4.49249 8.96984 4.23749 9.27734 4.23749C9.58484 4.23749 9.83984 4.49249 9.83984 4.79999V8.54999C9.83984 8.85749 9.58484 9.11249 9.27734 9.11249Z" fill="#0E82FD"/>
<path d="M11.1523 7.23749H7.40234C7.09484 7.23749 6.83984 6.98249 6.83984 6.67499C6.83984 6.36749 7.09484 6.11249 7.40234 6.11249H11.1523C11.4598 6.11249 11.7148 6.36749 11.7148 6.67499C11.7148 6.98249 11.4598 7.23749 11.1523 7.23749Z" fill="#0E82FD"/>
</svg>
