<svg width="19" height="19" viewBox="0 0 19 19" fill="none" xmlns="http://www.w3.org/2000/svg">
<path d="M12.4874 16.875H9.63736C9.21736 16.875 8.30236 16.7475 7.81486 16.26L5.54236 14.505L6.23236 13.6125L8.55736 15.4125C8.74486 15.5925 9.21736 15.7425 9.63736 15.7425H12.4874C13.1624 15.7425 13.8899 15.2025 14.0399 14.595L15.8549 9.08248C15.9749 8.75248 15.9524 8.45248 15.7949 8.23498C15.6299 8.00248 15.3299 7.86748 14.9624 7.86748H11.9624C11.5724 7.86748 11.2124 7.70248 10.9649 7.41748C10.7099 7.12498 10.5974 6.73498 10.6574 6.32998L11.0324 3.92248C11.1224 3.50248 10.8374 3.02998 10.4324 2.89498C10.0649 2.75998 9.59236 2.95498 9.42736 3.19498L6.35236 7.76998L5.42236 7.14748L8.49736 2.57248C8.96986 1.86748 10.0049 1.52998 10.8149 1.83748C11.7524 2.14498 12.3524 3.17998 12.1424 4.13998L11.7749 6.50248C11.7674 6.55498 11.7674 6.62998 11.8199 6.68998C11.8574 6.72748 11.9099 6.74998 11.9699 6.74998H14.9699C15.7049 6.74998 16.3424 7.05748 16.7174 7.58998C17.0849 8.10748 17.1599 8.78998 16.9199 9.44998L15.1274 14.91C14.8499 15.9975 13.6949 16.875 12.4874 16.875Z" fill="#0E82FD"/>
<path d="M4.3125 16.05H3.5625C2.175 16.05 1.5 15.3975 1.5 14.0625V6.71248C1.5 5.37748 2.175 4.72498 3.5625 4.72498H4.3125C5.7 4.72498 6.375 5.37748 6.375 6.71248V14.0625C6.375 15.3975 5.7 16.05 4.3125 16.05ZM3.5625 5.84998C2.745 5.84998 2.625 6.04498 2.625 6.71248V14.0625C2.625 14.73 2.745 14.925 3.5625 14.925H4.3125C5.13 14.925 5.25 14.73 5.25 14.0625V6.71248C5.25 6.04498 5.13 5.84998 4.3125 5.84998H3.5625Z" fill="#0E82FD"/>
</svg>
