<svg width="79" height="16" viewBox="0 0 79 16" fill="none" xmlns="http://www.w3.org/2000/svg">
<path d="M7.15918 1.54224C7.4873 0.885986 8.41699 0.91333 8.71777 1.54224L10.5225 5.17896L14.5146 5.75317C15.2256 5.86255 15.499 6.73755 14.9795 7.25708L12.1084 10.0735L12.792 14.0383C12.9014 14.7493 12.1357 15.2961 11.5068 14.968L7.95215 13.0813L4.37012 14.968C3.74121 15.2961 2.97559 14.7493 3.08496 14.0383L3.76855 10.0735L0.897461 7.25708C0.37793 6.73755 0.651367 5.86255 1.3623 5.75317L5.38184 5.17896L7.15918 1.54224ZM22.9092 1.54224C23.2373 0.885986 24.167 0.91333 24.4678 1.54224L26.2725 5.17896L30.2646 5.75317C30.9756 5.86255 31.249 6.73755 30.7295 7.25708L27.8584 10.0735L28.542 14.0383C28.6514 14.7493 27.8857 15.2961 27.2568 14.968L23.7021 13.0813L20.1201 14.968C19.4912 15.2961 18.7256 14.7493 18.835 14.0383L19.5186 10.0735L16.6475 7.25708C16.1279 6.73755 16.4014 5.86255 17.1123 5.75317L21.1318 5.17896L22.9092 1.54224ZM38.6592 1.54224C38.9873 0.885986 39.917 0.91333 40.2178 1.54224L42.0225 5.17896L46.0146 5.75317C46.7256 5.86255 46.999 6.73755 46.4795 7.25708L43.6084 10.0735L44.292 14.0383C44.4014 14.7493 43.6357 15.2961 43.0068 14.968L39.4521 13.0813L35.8701 14.968C35.2412 15.2961 34.4756 14.7493 34.585 14.0383L35.2686 10.0735L32.3975 7.25708C31.8779 6.73755 32.1514 5.86255 32.8623 5.75317L36.8818 5.17896L38.6592 1.54224ZM54.4092 1.54224C54.7373 0.885986 55.667 0.91333 55.9678 1.54224L57.7725 5.17896L61.7646 5.75317C62.4756 5.86255 62.749 6.73755 62.2295 7.25708L59.3584 10.0735L60.042 14.0383C60.1514 14.7493 59.3857 15.2961 58.7568 14.968L55.2021 13.0813L51.6201 14.968C50.9912 15.2961 50.2256 14.7493 50.335 14.0383L51.0186 10.0735L48.1475 7.25708C47.6279 6.73755 47.9014 5.86255 48.6123 5.75317L52.6318 5.17896L54.4092 1.54224ZM70.1592 1.54224C70.4873 0.885986 71.417 0.91333 71.7178 1.54224L73.5225 5.17896L77.5146 5.75317C78.2256 5.86255 78.499 6.73755 77.9795 7.25708L75.1084 10.0735L75.792 14.0383C75.9014 14.7493 75.1357 15.2961 74.5068 14.968L70.9521 13.0813L67.3701 14.968C66.7412 15.2961 65.9756 14.7493 66.085 14.0383L66.7686 10.0735L63.8975 7.25708C63.3779 6.73755 63.6514 5.86255 64.3623 5.75317L68.3818 5.17896L70.1592 1.54224Z" fill="#FFCA18"/>
</svg>
